<?xml version="1.0" standalone="no"?>
<!DOCTYPE svg PUBLIC "-//W3C//DTD SVG 20010904//EN"
 "http://www.w3.org/TR/2001/REC-SVG-20010904/DTD/svg10.dtd">
<svg version="1.0" xmlns="http://www.w3.org/2000/svg"
 width="1084.000000pt" height="1084.000000pt" viewBox="0 0 1084.000000 1084.000000"
 preserveAspectRatio="xMidYMid meet">
<metadata>
Created by potrace 1.14, written by Peter Selinger 2001-2017
</metadata>
<g transform="translate(0.000000,1084.000000) scale(0.100000,-0.100000)"
fill="#000000" stroke="none">
<path d="M6576 8643 c-1 -1 -76 -5 -166 -8 -91 -3 -190 -8 -220 -10 -30 -3
-84 -7 -120 -10 -73 -6 -144 -12 -210 -20 -25 -2 -70 -7 -100 -10 -30 -3 -62
-8 -70 -10 -8 -2 -42 -7 -75 -11 -33 -3 -69 -8 -80 -10 -11 -2 -33 -5 -50 -8
-16 -2 -46 -7 -65 -10 -19 -4 -48 -8 -65 -11 -16 -2 -39 -6 -50 -8 -11 -3 -40
-8 -65 -12 -25 -4 -54 -9 -65 -12 -11 -2 -31 -6 -45 -9 -21 -4 -133 -27 -190
-39 -8 -2 -64 -15 -125 -29 -60 -15 -117 -28 -126 -30 -122 -30 -158 -39 -179
-47 -14 -5 -34 -10 -45 -12 -11 -2 -27 -6 -35 -9 -22 -8 -233 -70 -250 -73 -8
-2 -51 -16 -95 -30 -44 -15 -84 -28 -90 -29 -5 -2 -17 -6 -25 -9 -8 -3 -62
-22 -120 -42 -186 -65 -244 -86 -275 -100 -96 -43 -303 -128 -322 -132 -13 -3
-23 -9 -23 -14 0 -5 -5 -9 -11 -9 -20 0 -271 -121 -454 -218 -140 -75 -332
-186 -427 -248 -37 -24 -71 -44 -75 -44 -5 0 -20 -11 -35 -25 -15 -14 -30 -25
-33 -25 -6 0 -208 -138 -265 -182 -91 -69 -387 -305 -422 -338 -24 -21 -74
-67 -112 -102 -361 -331 -706 -743 -942 -1123 -54 -87 -52 -85 -108 -182 -73
-126 -128 -229 -131 -243 -1 -3 -27 -57 -57 -120 -31 -63 -59 -126 -63 -140
-4 -14 -13 -31 -19 -39 -8 -11 -8 -13 3 -10 7 3 30 36 51 74 22 39 46 84 56
100 20 36 184 284 201 305 7 8 47 60 90 115 83 107 107 135 166 199 20 23 47
56 60 73 12 18 28 33 35 33 6 0 12 4 12 9 0 9 205 217 306 311 27 25 98 87
159 138 60 51 119 101 130 112 27 26 32 25 39 -7 10 -52 33 -204 41 -273 4
-42 11 -78 15 -90 1 -3 2 -9 1 -13 -1 -5 3 -34 8 -65 6 -32 13 -75 16 -97 3
-22 8 -53 10 -70 3 -16 7 -48 9 -70 3 -22 7 -49 9 -60 3 -11 8 -42 11 -70 8
-57 15 -106 22 -150 3 -16 7 -41 9 -55 2 -14 7 -47 11 -75 4 -27 8 -59 10 -70
8 -69 17 -126 24 -165 5 -24 6 -48 4 -52 -2 -3 0 -9 6 -13 6 -4 8 -11 4 -16
-3 -5 -1 -33 5 -62 11 -55 30 -178 36 -237 3 -19 6 -44 9 -55 2 -11 7 -45 11
-75 4 -30 9 -64 11 -75 2 -11 6 -39 9 -62 5 -46 10 -75 30 -208 8 -49 17 -108
20 -130 3 -22 8 -53 10 -70 2 -16 7 -46 10 -65 4 -33 9 -66 20 -150 3 -19 7
-44 9 -55 3 -11 8 -43 11 -71 3 -28 8 -61 10 -75 6 -28 26 -161 30 -204 2 -16
4 -30 5 -30 1 0 3 -13 5 -30 11 -89 20 -153 31 -210 2 -10 6 -37 9 -60 7 -48
16 -114 20 -135 2 -9 6 -43 10 -75 4 -33 9 -69 11 -80 4 -20 9 -50 19 -122 3
-21 10 -69 16 -108 14 -94 15 -102 24 -160 12 -89 14 -97 19 -103 5 -4 903 -7
1002 -3 14 1 26 11 34 31 7 16 10 30 9 32 -2 2 6 17 19 35 12 17 22 35 22 40
0 4 48 111 106 238 58 126 116 253 129 280 49 106 88 192 112 245 14 30 40 87
58 125 78 169 94 203 115 250 31 68 135 295 173 375 17 36 31 67 32 70 4 11
25 58 58 130 121 261 155 336 222 485 33 72 62 132 65 135 3 3 6 10 7 17 2 6
20 49 42 95 37 79 56 122 106 233 13 28 46 99 74 158 28 60 51 110 51 112 0 1
20 45 44 96 48 102 81 177 116 254 12 28 26 57 31 65 5 8 14 26 19 40 6 14 13
32 17 40 3 8 5 18 5 23 -1 4 3 7 8 7 6 0 10 9 10 20 0 11 5 20 10 20 6 0 10 7
10 15 0 8 4 23 10 33 12 21 110 232 110 237 0 2 21 48 46 102 78 166 84 179
84 184 0 2 -189 4 -419 5 l-419 0 -17 -41 c-9 -22 -21 -49 -25 -60 -5 -11 -25
-55 -44 -98 -19 -42 -35 -80 -36 -82 -1 -7 -29 -73 -50 -120 -10 -22 -37 -85
-60 -140 -23 -55 -53 -124 -66 -153 -13 -29 -24 -55 -24 -57 0 -5 -55 -128
-76 -168 -8 -16 -14 -33 -14 -38 0 -5 -13 -37 -29 -71 -16 -35 -91 -207 -166
-383 -76 -176 -150 -348 -166 -383 -16 -35 -29 -65 -29 -66 0 -2 -8 -21 -17
-42 -9 -22 -17 -41 -18 -44 -1 -3 -8 -21 -17 -40 -9 -19 -44 -100 -78 -180
-34 -80 -69 -163 -79 -185 -10 -22 -25 -56 -34 -75 -83 -192 -107 -250 -107
-259 0 -6 -5 -11 -12 -11 -6 0 -8 -3 -5 -6 3 -4 1 -16 -5 -28 -7 -11 -13 -23
-13 -26 -2 -5 -10 -25 -44 -103 -11 -26 -21 -51 -22 -55 -2 -4 -16 -36 -32
-72 -26 -58 -48 -107 -52 -120 -11 -31 -24 -52 -25 -40 -1 8 -3 24 -6 35 -2
11 -6 40 -9 65 -3 25 -7 59 -10 75 -2 17 -7 55 -10 85 -4 30 -8 66 -11 80 -2
14 -6 45 -9 70 -3 25 -7 61 -10 80 -2 19 -7 58 -10 85 -3 28 -8 62 -10 76 -3
15 -7 47 -10 70 -3 24 -8 60 -11 79 -7 56 -15 113 -19 145 -2 17 -6 55 -10 85
-4 30 -9 69 -11 85 -2 17 -5 44 -8 60 -2 17 -7 55 -10 85 -3 30 -8 66 -10 80
-3 14 -7 50 -11 80 -4 30 -8 64 -10 75 -2 11 -5 38 -8 60 -3 22 -9 63 -13 90
-4 28 -8 64 -9 80 -2 17 -4 30 -5 30 0 0 -3 23 -6 50 -4 51 -11 106 -14 115
-2 3 -2 8 -2 11 1 3 -3 35 -8 72 -6 36 -12 85 -15 109 -3 24 -7 57 -9 73 -3
17 -8 56 -11 88 -4 32 -9 68 -11 80 -5 22 -13 79 -14 107 -1 8 -6 49 -12 90
-5 41 -12 90 -14 110 -2 19 -6 53 -9 75 -6 43 -9 69 -20 155 -4 30 -9 66 -11
80 -3 14 -7 52 -10 85 -11 100 32 91 -436 90 -227 -1 -416 1 -421 3 -6 3 70
61 201 154 17 13 40 29 50 35 120 87 400 260 587 363 17 9 57 32 89 50 93 51
394 200 406 200 5 0 10 4 10 10 0 5 3 9 8 8 4 -1 38 12 75 30 38 18 70 32 72
32 3 0 34 14 71 30 36 17 71 32 77 33 7 1 14 4 17 7 3 3 32 16 65 29 33 13 79
32 102 42 23 11 47 19 53 19 5 0 18 4 28 10 17 10 225 88 252 95 22 6 291 96
315 106 17 7 117 37 150 45 35 9 163 46 175 51 8 3 20 7 25 8 6 2 48 13 95 25
47 12 92 24 100 25 8 2 17 4 20 5 3 1 10 3 15 4 6 1 28 7 50 13 22 7 55 15 73
18 18 3 57 12 88 20 31 8 59 14 62 14 4 -1 9 0 12 1 3 1 13 3 24 5 10 2 39 8
65 14 25 6 57 13 71 15 14 3 50 10 80 16 30 6 66 13 80 15 14 2 39 6 55 9 17
3 48 8 70 11 22 3 65 10 95 15 30 5 75 12 100 15 25 3 56 7 70 10 14 2 48 7
75 10 28 3 61 7 75 10 14 2 54 7 90 10 36 3 92 8 125 11 33 3 101 7 150 10 50
3 117 7 150 9 116 8 780 3 780 -5 0 -1 23 -3 50 -5 28 -2 79 -6 115 -10 36 -3
85 -8 110 -10 59 -5 129 -14 160 -20 14 -3 41 -7 60 -9 71 -10 126 -18 150
-23 14 -2 32 -6 40 -7 8 -1 29 -6 45 -10 17 -3 44 -8 60 -11 39 -5 228 -49
285 -66 25 -7 50 -14 55 -15 6 0 17 -4 25 -7 8 -3 42 -13 75 -22 33 -9 69 -19
80 -24 11 -5 38 -14 60 -20 38 -12 127 -44 170 -61 201 -82 275 -115 408 -183
87 -44 164 -85 171 -91 6 -6 33 -22 59 -36 26 -13 47 -28 47 -32 0 -5 5 -8 10
-8 11 0 148 -92 215 -144 66 -51 75 -58 149 -120 70 -59 272 -258 331 -326 17
-19 53 -64 80 -100 28 -36 53 -67 56 -70 9 -8 101 -147 149 -225 51 -82 159
-296 190 -375 12 -30 27 -66 33 -80 12 -29 18 -50 19 -67 1 -7 5 -13 9 -13 3
0 9 -12 12 -27 3 -16 15 -62 27 -103 22 -79 24 -86 39 -165 42 -215 53 -408
37 -640 -4 -55 -8 -111 -10 -125 -9 -60 -27 -179 -31 -200 -26 -125 -94 -370
-108 -387 -5 -7 -7 -13 -4 -13 4 0 -2 -20 -13 -45 -11 -25 -20 -49 -21 -53 -1
-4 -6 -18 -11 -32 -6 -14 -11 -29 -12 -35 -1 -5 -10 -28 -19 -49 -52 -120 -77
-173 -134 -286 -35 -69 -54 -114 -43 -100 11 14 22 33 26 43 3 9 10 17 15 17
5 0 9 6 9 14 0 8 6 21 13 28 16 16 118 184 169 278 19 36 41 76 49 90 7 14 14
27 14 30 1 3 17 37 35 75 19 39 35 72 35 75 1 3 14 32 28 64 15 33 35 82 45
110 9 28 21 54 25 57 5 3 8 8 6 10 -1 2 10 44 25 93 16 49 29 94 30 100 1 6 4
16 8 21 5 8 11 30 23 85 1 3 4 19 8 35 4 17 9 39 11 50 3 11 9 40 14 65 6 25
13 62 16 83 3 20 8 52 11 70 13 78 16 107 22 192 13 167 7 441 -12 590 -9 77
-17 127 -21 148 -2 12 -6 33 -9 47 -30 158 -107 413 -170 560 -35 82 -107 232
-115 240 -3 3 -14 21 -24 40 -10 19 -32 54 -48 78 -15 24 -28 45 -28 47 0 15
-180 250 -240 314 -91 98 -181 191 -184 191 -2 0 -24 19 -49 43 -24 23 -53 49
-63 57 -11 8 -54 43 -96 78 -42 34 -81 62 -86 62 -6 0 -12 4 -14 8 -1 5 -25
23 -53 42 -27 18 -52 36 -55 39 -3 3 -16 13 -30 21 -14 8 -71 42 -127 76 -57
33 -147 83 -200 110 -54 27 -101 53 -104 57 -3 5 -9 8 -13 7 -4 -1 -26 7 -49
18 -40 19 -76 34 -87 36 -3 1 -14 6 -25 12 -16 9 -180 73 -225 89 -3 1 -12 4
-20 7 -34 14 -170 59 -187 63 -10 3 -34 9 -53 14 -132 38 -351 93 -380 97 -19
3 -43 7 -52 10 -20 6 -54 13 -88 19 -14 2 -74 13 -135 23 -60 11 -115 17 -122
15 -7 -3 -13 -1 -13 3 0 5 -24 10 -53 12 -28 1 -68 5 -87 8 -45 8 -76 11 -181
18 -48 4 -96 9 -108 11 -43 8 -618 25 -625 18z"/>
<path d="M5483 6407 c-4 -7 -6 -17 -17 -87 -3 -19 -7 -44 -10 -55 -2 -11 -7
-40 -11 -65 -4 -25 -9 -54 -12 -65 -5 -24 -12 -74 -19 -135 -3 -24 -8 -47 -12
-50 -4 -3 -8 -21 -8 -40 -1 -19 -4 -48 -7 -65 -3 -16 -9 -46 -12 -65 -3 -19
-7 -46 -10 -60 -3 -14 -7 -41 -10 -60 -3 -19 -8 -48 -12 -65 -3 -16 -7 -41 -9
-55 -1 -14 -5 -38 -8 -55 -3 -16 -7 -43 -10 -60 -3 -26 -8 -54 -30 -170 -2
-11 -7 -42 -10 -68 -4 -27 -10 -59 -12 -70 -3 -12 -7 -39 -9 -61 -2 -21 -7
-46 -9 -55 -3 -9 -8 -34 -11 -56 -3 -23 -8 -52 -10 -65 -3 -14 -10 -52 -15
-85 -5 -33 -11 -69 -13 -80 -5 -22 -19 -108 -23 -140 -1 -11 -5 -31 -8 -44 -3
-13 -8 -49 -12 -80 -3 -31 -9 -60 -12 -66 -3 -5 -7 -23 -8 -40 -2 -28 -5 -46
-19 -115 -3 -14 -7 -45 -10 -69 -2 -24 -6 -51 -9 -60 -3 -9 -7 -32 -10 -51 -3
-19 -8 -46 -11 -60 -5 -22 -10 -57 -19 -125 -2 -11 -6 -33 -9 -50 -4 -16 -9
-46 -12 -65 -2 -19 -8 -51 -11 -70 -4 -19 -8 -50 -8 -67 -1 -18 -4 -33 -7 -33
-3 0 -6 -6 -7 -12 -2 -31 -12 -105 -18 -128 -3 -14 -7 -38 -10 -55 -3 -29 -10
-65 -14 -75 -1 -3 -2 -8 -1 -13 1 -4 -12 -85 -28 -180 -16 -94 -32 -188 -35
-207 -3 -19 -8 -46 -11 -60 -2 -14 -7 -41 -9 -60 -3 -19 -7 -45 -10 -56 -2
-12 -7 -39 -11 -60 -3 -22 -8 -54 -11 -73 -3 -18 -7 -41 -9 -50 -1 -9 -8 -52
-15 -96 -7 -44 -14 -89 -16 -100 -15 -69 -20 -104 -20 -134 l1 -34 388 0 c323
0 390 2 397 14 9 14 26 117 22 132 -1 4 1 7 6 7 4 0 8 15 8 33 1 17 4 46 7 62
3 17 8 48 12 70 3 22 10 63 15 90 11 58 20 109 25 145 6 46 15 106 20 130 6
31 12 65 20 110 6 40 22 130 30 175 2 17 8 50 11 75 3 25 8 54 11 65 2 11 6
34 8 50 3 17 7 41 9 55 3 13 8 42 11 65 3 22 10 63 15 90 14 72 19 104 26 155
3 25 8 54 11 65 2 11 6 31 8 45 1 14 6 41 9 60 4 19 9 49 12 65 2 17 6 41 9
55 3 14 7 41 10 60 3 19 7 46 10 60 3 14 7 40 10 58 3 17 7 47 10 65 3 17 7
43 10 57 3 14 7 41 10 60 3 19 10 60 15 90 5 30 12 71 15 90 3 19 10 60 15 90
5 30 12 73 16 95 3 22 9 58 14 80 4 22 8 47 8 55 0 8 2 24 5 35 3 11 8 40 12
65 4 25 9 52 10 60 1 8 6 35 10 60 4 25 9 54 11 65 2 10 6 37 9 60 3 22 8 47
10 55 4 15 13 70 21 125 2 17 6 41 9 55 2 14 6 39 9 55 2 17 7 45 10 63 3 17
9 47 12 65 10 54 15 91 16 105 1 12 12 7 14 -6 1 -14 16 -118 20 -137 5 -26
33 -199 39 -239 2 -17 7 -42 10 -56 3 -14 7 -46 10 -71 3 -25 8 -56 10 -70 3
-13 8 -44 11 -69 3 -25 8 -54 11 -65 4 -11 7 -33 9 -50 2 -29 19 -136 29 -185
3 -14 7 -47 10 -73 3 -27 7 -52 10 -57 3 -4 7 -27 10 -51 3 -24 7 -55 9 -69 3
-14 7 -41 10 -60 10 -71 17 -116 22 -140 2 -14 7 -41 10 -60 3 -19 9 -60 14
-90 9 -53 12 -70 25 -175 4 -27 9 -57 12 -65 3 -8 7 -26 8 -40 4 -41 16 -112
24 -150 4 -19 7 -48 7 -65 -1 -16 2 -32 5 -35 4 -3 9 -27 13 -55 8 -70 15
-111 26 -175 5 -30 12 -73 15 -95 3 -22 7 -47 10 -55 2 -8 7 -35 10 -60 3 -25
7 -56 9 -70 3 -14 7 -41 10 -60 3 -19 8 -46 10 -59 3 -12 8 -44 11 -70 6 -56
13 -100 29 -183 3 -13 7 -45 11 -71 3 -26 10 -69 15 -95 4 -26 11 -65 14 -87
4 -23 8 -52 11 -65 2 -13 7 -44 10 -69 3 -25 7 -57 10 -71 3 -14 8 -45 12 -70
3 -25 7 -47 9 -49 6 -7 539 -4 562 3 12 4 20 11 18 15 -3 4 29 77 71 162 42
85 77 156 78 159 0 3 34 73 74 155 120 243 165 340 163 348 -1 4 3 7 8 7 6 0
10 5 10 10 0 6 34 81 76 168 42 86 99 204 126 262 28 58 53 107 57 110 3 3 7
10 8 15 1 6 36 82 79 170 43 88 79 162 79 165 1 3 35 75 77 160 152 311 182
375 180 383 -1 4 2 7 7 7 8 0 17 21 26 58 2 8 11 22 19 31 9 10 16 21 16 25 0
8 51 117 169 358 50 103 91 192 91 198 0 5 4 10 8 10 5 0 14 18 21 40 6 21 18
46 27 55 8 8 13 15 9 15 -3 0 1 13 10 30 8 16 15 33 14 36 0 4 3 10 8 13 4 3
22 35 39 71 17 36 53 111 80 167 27 57 53 103 57 103 5 0 6 -4 3 -8 -3 -5 -8
-24 -11 -43 -3 -19 -7 -45 -10 -59 -8 -41 -16 -93 -20 -123 -2 -16 -6 -40 -9
-55 -13 -61 -17 -89 -20 -117 -2 -16 -7 -46 -11 -65 -15 -78 -23 -135 -18
-142 2 -5 0 -8 -4 -8 -5 0 -9 -8 -9 -17 -2 -30 -14 -114 -18 -121 -2 -4 -7
-31 -10 -60 -3 -30 -11 -74 -16 -99 -6 -24 -8 -48 -5 -53 3 -5 1 -11 -5 -15
-6 -4 -8 -11 -5 -16 4 -5 3 -14 -1 -21 -4 -6 -9 -26 -10 -42 -1 -17 -7 -53
-12 -81 -6 -27 -8 -53 -6 -57 3 -5 2 -8 -3 -8 -4 0 -8 -10 -9 -22 0 -13 -3
-41 -7 -63 -15 -85 -18 -101 -22 -135 -2 -19 -4 -35 -5 -35 -3 0 -19 -90 -26
-145 -2 -19 -6 -46 -9 -60 -12 -59 -24 -127 -30 -175 -3 -16 -7 -48 -11 -70
-4 -22 -8 -49 -10 -60 -1 -11 -3 -20 -4 -20 -2 0 -9 -35 -16 -90 -3 -27 -7
-52 -9 -55 -2 -3 -6 -25 -9 -50 -3 -25 -8 -56 -11 -70 -2 -13 -8 -42 -11 -65
-4 -22 -8 -49 -10 -60 -2 -11 -5 -35 -8 -53 -3 -18 -7 -45 -10 -60 -3 -15 -8
-43 -11 -62 -3 -19 -7 -46 -10 -60 -3 -14 -7 -41 -10 -60 -3 -19 -9 -51 -12
-70 -4 -19 -7 -39 -8 -45 -1 -14 -16 -104 -21 -135 -9 -46 -14 -75 -18 -110
-3 -19 -8 -46 -11 -60 -3 -14 -7 -41 -10 -60 -3 -19 -7 -45 -10 -58 -18 -94
-46 -275 -43 -284 3 -8 138 -11 469 -10 255 0 476 1 490 1 24 1 27 6 33 49 4
26 9 56 11 67 2 11 6 38 10 60 3 22 7 50 9 61 2 12 7 37 10 55 3 19 15 88 26
154 11 66 23 138 26 160 6 42 10 67 17 100 3 11 8 40 11 65 8 56 15 100 21
120 2 8 7 40 10 70 4 30 8 58 11 62 3 4 7 27 9 50 3 24 7 54 10 68 3 14 8 41
11 60 3 19 7 46 9 60 2 14 6 39 9 55 24 140 56 326 60 355 3 19 7 44 10 55 2
11 7 45 12 75 4 30 8 57 9 60 1 3 5 28 10 55 4 28 9 59 11 70 3 11 7 36 10 55
3 19 7 46 10 60 7 38 15 92 18 120 2 14 8 50 14 80 10 49 16 83 27 155 2 11 6
36 10 55 7 38 13 74 21 130 2 19 6 42 9 50 2 8 7 38 11 65 3 28 8 59 10 70 3
11 7 36 10 55 2 19 9 58 14 85 5 28 12 65 15 83 3 17 8 47 11 65 4 17 8 46 9
62 1 17 3 30 4 30 3 0 7 25 14 75 3 19 12 78 22 130 9 52 18 108 21 124 2 15
5 35 8 45 3 9 8 41 11 71 4 30 9 58 10 61 2 3 7 28 10 55 7 53 12 85 20 124
12 63 19 108 19 140 1 19 4 37 7 40 7 6 29 141 24 149 -2 4 -346 6 -766 6
l-762 0 -21 -45 c-11 -25 -24 -46 -28 -48 -5 -2 -8 -9 -8 -16 0 -8 -15 -44
-34 -82 -19 -38 -40 -80 -45 -94 -6 -14 -15 -32 -20 -40 -5 -8 -27 -53 -49
-100 -82 -175 -144 -305 -153 -320 -5 -8 -14 -25 -19 -38 -5 -13 -22 -49 -37
-80 -15 -31 -26 -60 -25 -64 1 -5 -2 -8 -8 -8 -5 0 -10 -4 -10 -9 0 -5 -34
-81 -76 -168 -118 -246 -128 -268 -126 -275 1 -5 -2 -8 -8 -8 -5 0 -10 -4 -10
-9 0 -5 -35 -82 -79 -172 -43 -90 -94 -198 -114 -239 -19 -41 -69 -145 -110
-230 -41 -85 -87 -182 -102 -215 -16 -33 -33 -63 -39 -67 -6 -4 -8 -8 -4 -8 4
0 -13 -41 -38 -91 -25 -50 -49 -101 -54 -115 -13 -32 -30 -31 -31 4 -2 32 -3
40 -24 177 -3 17 -7 46 -9 65 -3 19 -8 53 -11 75 -3 22 -8 56 -11 75 -2 19 -6
46 -9 60 -2 14 -7 45 -10 70 -7 52 -13 94 -20 130 -2 14 -7 50 -11 80 -10 80
-12 95 -14 95 -2 0 -5 24 -14 105 -3 30 -8 65 -10 77 -4 20 -11 65 -21 138 -2
17 -6 41 -9 55 -2 14 -7 43 -10 65 -8 61 -15 116 -21 155 -3 19 -8 50 -10 69
-2 19 -7 49 -10 68 -3 18 -8 50 -11 71 -3 20 -7 48 -10 62 -2 14 -6 45 -10 70
-3 25 -7 56 -10 70 -2 14 -6 46 -9 71 -3 25 -8 56 -11 70 -3 13 -7 42 -9 64
-2 22 -4 40 -5 40 -1 0 -3 9 -4 20 -2 11 -6 45 -11 75 -4 30 -9 64 -11 75 -1
11 -7 52 -14 90 -15 99 -22 157 -22 178 1 9 -5 18 -11 18 -51 6 -1470 3 -1474
-4z"/>
<path d="M57 4810 c-3 -11 -2 -20 3 -20 4 0 10 9 13 20 3 11 2 20 -3 20 -4 0
-10 -9 -13 -20z"/>
</g>
</svg>
